<svg width="32" height="32" viewBox="0 0 32 32" fill="none" xmlns="http://www.w3.org/2000/svg">
<path d="M4 12.983C3.9967 13.1857 4.05508 13.3846 4.16741 13.5534C4.27975 13.7222 4.44073 13.8528 4.629 13.928L14.23 17.769L18.071 27.371C18.1452 27.5567 18.2734 27.7159 18.439 27.828C18.6046 27.9402 18.8 28 19 28H19.016C19.2185 27.9968 19.4153 27.9322 19.5803 27.8147C19.7453 27.6972 19.8708 27.5323 19.94 27.342L27.94 5.34198C28.0055 5.163 28.0185 4.96904 27.9774 4.78294C27.9364 4.59683 27.843 4.42633 27.7083 4.29152C27.5736 4.15671 27.4031 4.0632 27.2171 4.022C27.031 3.9808 26.837 3.99363 26.658 4.05898L4.658 12.059C4.46757 12.1284 4.3027 12.254 4.18521 12.4192C4.06771 12.5844 4.00313 12.7813 4 12.984V12.983Z" fill="black"/>
</svg>
