<svg width="24" height="24" viewBox="0 0 24 24" fill="none" xmlns="http://www.w3.org/2000/svg">
<circle cx="12" cy="12" r="11" stroke="white" stroke-width="2"/>
<path d="M16 18H14V16H10V18H8V16C8.00053 15.4697 8.21141 14.9613 8.58637 14.5864C8.96133 14.2114 9.46973 14.0005 10 14H14C14.5303 14.0005 15.0387 14.2114 15.4136 14.5864C15.7886 14.9613 15.9995 15.4697 16 16V18Z" fill="white"/>
<path d="M12 13C11.4067 13 10.8266 12.8241 10.3333 12.4944C9.83994 12.1648 9.45543 11.6962 9.22836 11.1481C9.0013 10.5999 8.94189 9.99667 9.05765 9.41473C9.1734 8.83279 9.45912 8.29824 9.87868 7.87868C10.2982 7.45912 10.8328 7.1734 11.4147 7.05765C11.9967 6.94189 12.5999 7.0013 13.1481 7.22836C13.6962 7.45543 14.1648 7.83994 14.4944 8.33329C14.8241 8.82664 15 9.40666 15 10C14.9992 10.7954 14.6829 11.558 14.1204 12.1204C13.558 12.6829 12.7954 12.9992 12 13ZM12 9C11.8022 9 11.6089 9.05865 11.4444 9.16853C11.28 9.27841 11.1518 9.43459 11.0761 9.61732C11.0004 9.80004 10.9806 10.0011 11.0192 10.1951C11.0578 10.3891 11.153 10.5673 11.2929 10.7071C11.4327 10.847 11.6109 10.9422 11.8049 10.9808C11.9989 11.0194 12.2 10.9996 12.3827 10.9239C12.5654 10.8482 12.7216 10.72 12.8315 10.5556C12.9414 10.3911 13 10.1978 13 10C12.9997 9.73487 12.8943 9.48067 12.7068 9.29319C12.5193 9.10571 12.2651 9.00027 12 9Z" fill="white"/>
</svg>
